# xmcd
#
# Track frame offsets: 
#        150
#        14025
#        32077
#        47977
#        68297
#        83262
#        98230
#        116322
#        132220
#        148202
#        163657
#
# Disc length: 2381 seconds
#
# Revision: 0
# Processed by: cddbd v1.5.1PL2 Copyright (c) Steve Scherf et al.
# Submitted via: ExactAudioCopy v0.95b3
#
DISCID=8a094b0b
DTITLE=Roger Tillison - Mamble-Jamble
DYEAR=2005
DGENRE=Country
TTITLE0=Hot Mamble Jamble
TTITLE1=Jamaica Run
TTITLE2=Sweet Little Thing
TTITLE3=One Night Stand
TTITLE4=Two Step Blue Step
TTITLE5=Change, Change
TTITLE6=Jukebox Poet
TTITLE7=Callin' On You
TTITLE8=Southwest Wind
TTITLE9=Pony Blues
TTITLE10=Rock N' Roll Gypsies
EXTD=
EXTT0=
EXTT1=
EXTT2=
EXTT3=
EXTT4=
EXTT5=
EXTT6=
EXTT7=
EXTT8=
EXTT9=
EXTT10=
PLAYORDER=
